<svg width="100" height="100" viewBox="0 0 100 100" fill="none" xmlns="http://www.w3.org/2000/svg">
<circle cx="50" cy="50" r="48.5" fill="#FDFBF9" stroke="#2C2C2C" stroke-width="3"/>
<path d="M22.1333 81C24.9818 80.1923 29.4026 78.2982 34.4844 75.0807M60.0483 48.7897C52.2931 61.5233 42.5551 69.9708 34.4844 75.0807M34.4844 75.0807C51.6228 79.4292 84.1186 76.2112 76.9952 28.5514C61.2462 29.464 50.88 34.3945 43.9634 40.6567M29.6014 68.743C30.0027 66.9011 30.5091 64.5464 31.2813 61.9019M34.9694 52.4953C35.095 49.7399 34.7716 42.0056 32.4738 33.1121M34.9694 52.4953C33.284 55.7826 32.1243 59.0149 31.2813 61.9019M34.9694 52.4953C37.0425 48.4521 39.9108 44.3258 43.9634 40.6567M31.2813 61.9019C24.2774 55.7259 14.472 38.6991 31.2813 20C41.6568 24.5607 44.0591 35.6715 43.9634 40.6567" stroke="#2C2C2C" stroke-width="3" stroke-linecap="round" stroke-linejoin="round"/>
</svg>
